<?xml version="1.0" encoding="UTF-8" standalone="no"?>
<!-- Created with Inkscape (http://www.inkscape.org/) -->

<svg
   xmlns:dc="http://purl.org/dc/elements/1.1/"
   xmlns:cc="http://creativecommons.org/ns#"
   xmlns:rdf="http://www.w3.org/1999/02/22-rdf-syntax-ns#"
   xmlns:svg="http://www.w3.org/2000/svg"
   xmlns="http://www.w3.org/2000/svg"
   xmlns:sodipodi="http://sodipodi.sourceforge.net/DTD/sodipodi-0.dtd"
   xmlns:inkscape="http://www.inkscape.org/namespaces/inkscape"
   version="1.1"
   id="svg1987"
   xml:space="preserve"
   width="176"
   height="256"
   viewBox="0 0 176 256"
   sodipodi:docname="fdual.svg"
   inkscape:version="0.92.5 (2060ec1f9f, 2020-04-08)"><metadata
     id="metadata1993"><rdf:RDF><cc:Work
         rdf:about=""><dc:format>image/svg+xml</dc:format><dc:type
           rdf:resource="http://purl.org/dc/dcmitype/StillImage" /><dc:title></dc:title></cc:Work></rdf:RDF></metadata><defs
     id="defs1991" /><sodipodi:namedview
     pagecolor="#ffffff"
     bordercolor="#666666"
     borderopacity="1"
     objecttolerance="10"
     gridtolerance="10"
     guidetolerance="10"
     inkscape:pageopacity="0"
     inkscape:pageshadow="2"
     inkscape:window-width="774"
     inkscape:window-height="480"
     id="namedview1989"
     showgrid="false"
     inkscape:zoom="0.65186406"
     inkscape:cx="4.1823095"
     inkscape:cy="125.04372"
     inkscape:window-x="474"
     inkscape:window-y="101"
     inkscape:window-maximized="0"
     inkscape:current-layer="g1995" /><g
     id="g1995"
     inkscape:groupmode="layer"
     inkscape:label="ink_ext_XXXXXX"
     transform="matrix(1.3333333,0,0,-1.3333333,0,256)"><g
       id="g1997"
       transform="scale(0.1)"><g
         id="g1999"
         transform="scale(10)"><text
           transform="matrix(1,0,0,-1,112.811,178.43)"
           style="font-variant:normal;font-weight:normal;font-size:17px;font-family:'DejaVu Sans';-inkscape-font-specification:DejaVuSans;writing-mode:lr-tb;fill:#000000;fill-opacity:1;fill-rule:nonzero;stroke:none"
           id="text2005"><tspan
             x="0 10.387"
             y="0"
             sodipodi:role="line"
             id="tspan2001">Y*</tspan><tspan
             x="-113.191 -101.546"
             y="177.961"
             sodipodi:role="line"
             id="tspan2003">X*</tspan></text>
</g><path
         d="m 462.93,787.191 h 325.469 v 313.398 H 462.93 Z"
         style="fill:#b1a3ff;fill-opacity:1;fill-rule:nonzero;stroke:none"
         id="path2007"
         inkscape:connector-curvature="0" /><path
         d="m 462.93,787.191 h 325.469 v 313.398 H 462.93 Z"
         style="fill:none;stroke:#000000;stroke-width:7.51180983;stroke-linecap:butt;stroke-linejoin:miter;stroke-miterlimit:4;stroke-dasharray:none;stroke-opacity:1"
         id="path2009"
         inkscape:connector-curvature="0" /><g
         id="g2011"
         transform="scale(10)"><text
           transform="matrix(1,0,0,-1,60.25,87.3961)"
           style="font-variant:normal;font-weight:normal;font-size:17px;font-family:'DejaVu Sans';-inkscape-font-specification:DejaVuSans;writing-mode:lr-tb;fill:#000000;fill-opacity:1;fill-rule:nonzero;stroke:none"
           id="text2015"><tspan
             x="0"
             y="0"
             id="tspan2013">f</tspan></text>
</g><path
         d="m 654.449,1113.12 c 0,0 28.75,290.36 2.699,417.86 -23.046,112.69 -190.468,166.4 -305.347,160.74 C 244.922,1686.41 92.5,1621.56 83.9102,1514.92 48.6719,1076.17 89.3008,167.582 89.3008,167.582"
         style="fill:none;stroke:#ff5555;stroke-width:21.68499947;stroke-linecap:butt;stroke-linejoin:miter;stroke-miterlimit:4;stroke-dasharray:none;stroke-opacity:1"
         id="path2017"
         inkscape:connector-curvature="0" /><path
         d="m 627.031,779.801 c 0,0 -28.75,-290.352 -2.691,-417.852 23.039,-112.687 190.461,-166.398 305.351,-160.738 106.869,5.309 259.289,70.16 267.849,176.801 35.27,438.75 -5.35,1347.298 -5.35,1347.298"
         style="fill:none;stroke:#ff5555;stroke-width:21.68499947;stroke-linecap:butt;stroke-linejoin:miter;stroke-miterlimit:4;stroke-dasharray:none;stroke-opacity:1"
         id="path2019"
         inkscape:connector-curvature="0" /></g><rect
       style="fill:#b1a3ff;fill-opacity:1;stroke:#000000;stroke-width:0.76005113;stroke-miterlimit:4;stroke-dasharray:none"
       id="rect794-5"
       width="32.469246"
       height="32.158279"
       x="46.370655"
       y="-110.87738"
       transform="scale(1,-1)" /><g
       id="g1679"
       transform="matrix(1.827519,0,0,-1.830089,-99.2716,273.26394)"><g
         word-spacing="normal"
         letter-spacing="normal"
         font-size-adjust="none"
         font-stretch="normal"
         font-weight="normal"
         font-variant="normal"
         font-style="normal"
         stroke-miterlimit="10.433"
         xml:space="preserve"
         transform="matrix(0.3,0,0,-0.3,-52.5,222.75)"
         id="g1677"
         style="font-style:normal;font-variant:normal;font-weight:normal;font-stretch:normal;letter-spacing:normal;word-spacing:normal;text-anchor:start;fill:none;fill-opacity:1;fill-rule:evenodd;stroke:#000000;stroke-linecap:butt;stroke-linejoin:miter;stroke-miterlimit:10.43299961;stroke-dasharray:none;stroke-dashoffset:0;stroke-opacity:1"><path
           id="path1675"
           d="m 473.8,426.12 h 4.28 c 1,0 1.5,0 1.5,1 0,0.55 -0.5,0.55 -1.34,0.55 h -4.14 l 1.04,5.69 c 0.21,1.04 0.91,4.57 1.21,5.17 0.45,0.95 1.29,1.7 2.34,1.7 0.19,0 1.49,0 2.44,-0.91 -2.19,-0.18 -2.69,-1.93 -2.69,-2.68 0,-1.14 0.89,-1.74 1.85,-1.74 1.29,0 2.73,1.1 2.73,2.99 0,2.29 -2.3,3.43 -4.33,3.43 -1.7,0 -4.84,-0.89 -6.33,-5.82 -0.29,-1.05 -0.45,-1.55 -1.64,-7.83 h -3.43 c -0.96,0 -1.5,0 -1.5,-0.94 0,-0.61 0.45,-0.61 1.39,-0.61 h 3.29 l -3.75,-19.67 c -0.89,-4.83 -1.73,-9.38 -4.33,-9.38 -0.2,0 -1.43,0 -2.39,0.91 2.3,0.14 2.74,1.94 2.74,2.69 0,1.14 -0.89,1.75 -1.85,1.75 -1.29,0 -2.73,-1.1 -2.73,-3 0,-2.24 2.19,-3.44 4.23,-3.44 2.74,0 4.74,2.94 5.63,4.84 1.59,3.14 2.75,9.16 2.8,9.52 z"
           inkscape:connector-curvature="0"
           style="fill:#000000;stroke-width:0" /></g></g></g></svg>